<svg width="735" height="429" viewBox="0 0 735 429" fill="none" xmlns="http://www.w3.org/2000/svg">
<mask id="mask0" mask-type="alpha" maskUnits="userSpaceOnUse" x="0" y="10" width="735" height="419">
<path d="M0.232422 10.2932H734.345V428.293H0.232422V10.2932Z" fill="#EBEBEB"/>
</mask>
<g mask="url(#mask0)">
<path d="M647.496 238.719C647.96 153.222 528.254 83.2612 380.127 82.4581C231.999 81.6549 111.542 150.313 111.079 235.81C110.615 321.308 230.321 391.268 378.448 392.071C526.576 392.874 647.033 324.216 647.496 238.719Z" fill="#F4F4F4"/>
<path d="M337.139 291.156C335.299 290.006 332.079 290.006 330.008 291.156L298.725 309.098C296.885 310.248 296.885 312.088 298.725 313.238L367.963 353.262C369.803 354.413 373.023 354.413 375.093 353.262L406.377 335.321C408.217 334.17 408.217 332.33 406.377 331.18L337.139 291.156Z" fill="#F4F4F4"/>
<path d="M400.856 330.488C401.546 330.948 401.546 331.638 400.856 332.098L369.803 350.04C369.113 350.5 367.733 350.5 367.043 350.04L306.086 314.847C305.396 314.387 305.396 313.696 306.086 313.236L337.139 295.294C337.83 294.834 339.21 294.834 339.9 295.294L400.856 330.488Z" fill="#243A5E"/>
<path d="M324.258 299.207C324.488 299.437 324.488 299.667 324.028 299.897L313.907 305.877C313.447 306.107 312.987 306.107 312.757 306.107C312.527 305.877 312.527 305.647 312.987 305.417L323.108 299.437C323.338 298.977 323.798 298.977 324.258 299.207Z" fill="#CDCDD0"/>
<path d="M406.377 335.32L375.093 353.262C373.253 354.412 370.033 354.412 367.963 353.262L298.725 313.238C297.805 312.778 297.345 312.088 297.345 311.168V313.928C297.345 314.618 297.805 315.308 298.725 315.998L367.963 356.023C369.803 357.173 373.023 357.173 375.093 356.023L406.377 338.081C407.297 337.621 407.757 336.701 407.757 336.01V333.25C407.757 333.94 407.297 334.63 406.377 335.32Z" fill="#CDCDD0"/>
<path d="M338.519 323.589L350.941 330.72L366.582 321.749L354.161 314.618L351.171 316.458L348.87 315.078C346.34 313.698 342.43 313.698 339.9 315.078L339.439 315.308C336.909 316.688 336.909 318.989 339.439 320.369L341.74 321.749L338.519 323.589ZM349.791 323.129C348.87 322.439 348.87 321.519 349.791 321.059C350.711 320.369 352.551 320.369 353.471 321.059C354.161 321.519 354.391 322.209 354.161 322.669L356.461 324.049L355.081 324.739L352.781 323.359C351.631 323.589 350.711 323.589 349.791 323.129ZM341.05 319.219C339.669 318.299 339.669 317.149 341.05 316.228L341.51 315.998C342.89 315.078 345.19 315.078 346.8 315.998L349.1 317.379L343.35 320.829L341.05 319.219Z" fill="#50E6FF"/>
<g opacity="0.2" filter="url(#filter0_f)">
<path fill-rule="evenodd" clip-rule="evenodd" d="M237.711 356.848L285.243 329.293L352.871 368.397L305.256 396L305.057 395.886C301.004 398.125 290.854 399.675 282.483 399.223C278.113 399.223 275.122 398.533 273.512 397.613C271.902 396.692 206.345 358.738 206.345 358.738C207.955 359.428 210.715 359.888 214.626 360.119C223.137 360.579 233.258 358.968 237.398 356.668L237.711 356.848Z" fill="#353544"/>
</g>
<g opacity="0.5" filter="url(#filter1_f)">
<path d="M356.192 257.294C423.589 246.483 476.724 223.94 515.139 189.207L459.703 183.456C399.436 207.839 371.373 229.001 344 250.163L356.192 257.294Z" fill="#353544"/>
</g>
<g opacity="0.4" filter="url(#filter2_f)">
<path d="M267.239 225.008L218.703 195.104L197.771 184.293L139.345 210.056L206.972 253.531L267.239 225.008Z" fill="#353544"/>
</g>
<g opacity="0.2" filter="url(#filter3_f)">
<path d="M344.345 106.293L324.277 90.1045L303.345 79.2933L154.345 154.056L193.505 183.816L344.345 106.293Z" fill="#353544"/>
</g>
<g opacity="0.2" filter="url(#filter4_f)">
<path d="M613.239 222.526L540.321 179.281C535.26 176.291 534.11 171.46 536.64 165.94C539.171 160.419 545.151 154.439 553.892 149.378C571.374 139.027 593.457 135.347 603.808 140.867C619.219 132.356 637.851 129.826 646.362 134.887C647.742 135.807 648.892 136.727 649.583 137.877C669.135 132.816 687.537 132.816 697.888 139.027C706.169 144.088 708.009 151.908 703.868 160.879C700.188 168.93 691.677 177.901 679.256 185.952C682.706 188.942 683.166 193.313 680.866 197.913C678.336 203.434 672.355 209.414 663.614 214.475C646.132 224.826 623.59 228.507 613.239 222.526Z" fill="#353544"/>
</g>
<path d="M642.519 150.495L616.774 165.437C630.336 173.712 641.37 193.021 641.37 208.882C641.37 216.928 638.611 222.675 634.014 225.203L659.989 210.262C664.587 207.503 667.345 201.986 667.345 193.941C667.115 178.08 656.081 158.771 642.519 150.495Z" fill="#50E6FF"/>
<path d="M620.222 113.486C618.383 112.337 616.544 111.647 614.705 111.188L588.729 126.129C590.568 126.589 592.407 127.508 594.246 128.428C605.97 135.324 615.854 151.415 616.544 165.437L642.519 150.495C641.829 136.473 632.175 120.382 620.222 113.486Z" fill="#50E6FF"/>
<path d="M498.189 106.327L498.201 106.32L498.214 106.313C501.756 104.229 506.682 104.154 512.235 106.597L513.566 107.182L513.653 105.731C514.328 94.4689 518.812 86.7946 525.325 83.1041L525.331 83.1007C532.49 78.9786 542.429 79.5264 553.741 86.0874L553.747 86.0906C567.996 94.2332 580.509 109.671 587.798 126.756L587.996 127.218L588.484 127.341C590.185 127.766 591.912 128.622 593.762 129.547C599.437 132.894 604.717 138.497 608.667 145.014C612.623 151.542 615.198 158.909 615.533 165.716L615.559 166.251L616.016 166.53C622.618 170.558 628.657 177.311 633.047 185.044C637.438 192.778 640.128 201.399 640.128 209.112C640.128 216.966 637.44 222.267 633.296 224.546L633.279 224.555L633.263 224.565C629.103 227.061 623.087 226.753 616.375 222.726L616.368 222.721L616.361 222.717L516.137 164.79L516.134 164.788C509.317 160.877 503.111 154.073 498.607 146.227C494.104 138.381 491.357 129.588 491.357 121.761C491.357 113.907 494.045 108.606 498.189 106.327Z" fill="white" stroke="#50E6FF" stroke-width="2.0244"/>
<path d="M580.224 70.0406C568.731 63.3744 558.386 62.6848 550.801 67.0523L524.825 81.9939C532.411 77.6263 542.755 78.3159 554.249 84.9822C568.731 93.2575 581.373 108.889 588.729 126.129L614.705 111.187C607.119 93.9471 594.476 78.3159 580.224 70.0406Z" fill="#50E6FF"/>
<path d="M308.519 83.4513C308.285 84.1515 307.819 84.6183 306.885 85.0852L280.744 99.556C278.877 100.723 275.843 100.723 274.209 99.7894L255.537 89.053C254.836 88.5862 254.37 88.1194 254.37 87.6526V87.4192C254.37 86.719 255.07 86.0188 256.003 85.3186L282.144 70.8477C284.012 69.6807 287.046 69.6807 288.68 70.6143L307.352 81.3507C308.285 81.8175 308.752 82.5177 308.519 83.4513Z" fill="#F4F4F4"/>
<path d="M306.885 110.06L280.744 124.531C279.81 125.231 278.643 125.465 277.476 125.465V100.491C278.643 100.491 279.81 100.024 280.744 99.5572L306.885 85.0863C307.818 84.6195 308.285 83.9193 308.518 83.4525V107.493C308.752 108.426 308.285 109.36 306.885 110.06Z" fill="white"/>
<path d="M283.312 114.961V117.061L304.784 104.691V102.824L283.312 114.961Z" fill="#E8E8EA"/>
<path d="M283.312 111.925L304.784 99.5542V97.687L283.312 110.057V111.925Z" fill="#E8E8EA"/>
<path d="M304.784 94.4214V92.5542L283.312 104.924V106.792L304.784 94.4214Z" fill="#E8E8EA"/>
<path d="M308.519 53.3427C308.285 54.0429 307.819 54.5097 306.885 54.9765L280.744 69.4474C278.877 70.6144 275.843 70.6144 274.209 69.6808L255.537 58.9443C254.836 58.4775 254.37 58.0107 254.37 57.5439V57.3105C254.37 56.6103 255.07 55.9101 256.003 55.2099L282.144 40.739C284.012 39.572 287.046 39.572 288.68 40.5056L307.352 51.2421C308.285 51.9423 308.752 52.6425 308.519 53.3427Z" fill="#F4F4F4"/>
<path d="M306.885 80.1821L280.744 94.653C279.81 95.1198 278.643 95.5866 277.476 95.5866V70.6127C278.643 70.6127 279.81 70.1459 280.744 69.679L306.885 55.2082C307.818 54.7414 308.285 54.0411 308.518 53.5743V77.6147C308.752 78.3149 308.285 79.2485 306.885 80.1821Z" fill="white"/>
<path d="M283.312 85.0852V87.1859L304.784 74.8156V72.715L283.312 85.0852Z" fill="#50E6FF"/>
<path d="M283.312 82.0528L304.784 69.6825V67.5819L283.312 79.9522V82.0528Z" fill="#50E6FF"/>
<path d="M304.784 64.5458V62.4452L283.312 74.8155V76.9161L304.784 64.5458Z" fill="#E8E8EA"/>
<path d="M308.519 23.4673C308.285 24.1675 307.819 24.6343 306.885 25.1011L280.744 39.572C278.877 40.739 275.843 40.739 274.209 39.8054L255.537 29.069C254.836 28.6022 254.37 28.1354 254.37 27.6686V27.4352C254.37 26.735 255.07 26.0348 256.003 25.3345L282.144 10.8637C284.012 9.69665 287.046 9.69665 288.68 10.6303L307.352 21.3667C308.285 21.8335 308.752 22.7671 308.519 23.4673Z" fill="white"/>
<path d="M306.885 50.0733L280.744 64.5442C279.81 65.011 278.643 65.4778 277.476 65.4778V40.7373C278.643 40.7373 279.81 40.5039 280.744 39.8037L306.885 25.3328C307.818 24.866 308.285 24.1658 308.518 23.699V47.7393C308.752 48.4395 308.285 49.3731 306.885 50.0733Z" fill="white"/>
<path d="M283.312 55.21V57.0772L304.784 44.7069V42.8397L283.312 55.21Z" fill="#E8E8EA"/>
<path d="M283.312 51.9404L304.784 39.5701V37.7029L283.312 50.0732V51.9404Z" fill="#E8E8EA"/>
<path d="M304.784 34.4373V32.5701L283.312 44.9403V46.8076L304.784 34.4373Z" fill="#50E6FF"/>
<path d="M277.476 40.7388V65.7128C276.309 65.7128 274.909 65.4794 274.209 65.0126L272.575 64.079L256.237 54.7429L255.537 54.2761C254.836 53.8093 254.37 53.3425 254.37 52.8757V52.6423V27.6683C254.37 28.1351 254.836 28.8353 255.537 29.0687L274.209 39.8052C275.142 40.5054 276.309 40.7388 277.476 40.7388Z" fill="#E8E8EA"/>
<path d="M277.476 70.6144V95.5884C276.309 95.5884 274.909 95.355 274.209 94.8882L272.575 93.9546L256.237 84.6185L255.537 84.1517C254.836 83.6849 254.37 83.2181 254.37 82.7513C254.37 82.7513 254.37 82.5179 254.37 82.2845V57.7773C254.37 58.2441 254.836 58.9444 255.537 59.1778L274.209 69.9142C275.142 70.381 276.309 70.6144 277.476 70.6144Z" fill="#E8E8EA"/>
<path d="M277.476 100.49V125.464C276.309 125.464 274.909 125.464 274.209 124.764L272.575 123.83L256.237 114.494L255.537 114.027C254.836 113.56 254.37 113.093 254.37 112.627C254.37 112.393 254.37 112.393 254.37 112.16V87.6527C254.37 88.1195 254.836 88.8197 255.537 89.0531L274.209 99.7896C275.142 100.49 276.309 100.723 277.476 100.49Z" fill="#E8E8EA"/>
<path d="M261.257 100.347C261.925 99.9571 261.886 98.6483 261.171 97.4242C260.455 96.2001 259.333 95.5242 258.666 95.9146C257.998 96.3049 258.037 97.6137 258.753 98.8378C259.468 100.062 260.59 100.738 261.257 100.347Z" fill="#50E6FF"/>
<path d="M261.3 70.4604C261.967 70.07 261.929 68.7612 261.213 67.5371C260.497 66.313 259.376 65.6371 258.708 66.0275C258.041 66.4178 258.079 67.7266 258.795 68.9507C259.511 70.1748 260.632 70.8507 261.3 70.4604Z" fill="#50E6FF"/>
<path d="M261.225 40.3704C261.893 39.9801 261.854 38.6713 261.138 37.4472C260.422 36.2231 259.301 35.5472 258.633 35.9375C257.966 36.3278 258.004 37.6366 258.72 38.8607C259.436 40.0848 260.557 40.7608 261.225 40.3704Z" fill="#50E6FF"/>
<path d="M266.507 106.326C266.273 107.027 265.807 107.493 264.873 107.96L238.732 122.431C236.865 123.598 233.831 123.598 232.197 122.665L213.525 111.928C212.824 111.461 212.358 110.994 212.358 110.528V110.294C212.358 109.594 213.058 108.894 213.991 108.194L240.132 93.7228C242 92.5558 245.034 92.5558 246.668 93.4894L265.34 104.226C266.273 104.693 266.74 105.626 266.507 106.326Z" fill="#F4F4F4"/>
<path d="M264.873 132.932L238.732 147.403C237.798 148.104 236.631 148.337 235.464 148.57V123.596C236.631 123.596 237.798 123.13 238.732 122.663L264.873 108.192C265.806 107.725 266.273 107.025 266.507 106.558V130.598C266.74 131.299 266.273 132.232 264.873 132.932Z" fill="white"/>
<path d="M241.3 138.069V139.937L262.772 127.566V125.699L241.3 138.069Z" fill="#E8E8EA"/>
<path d="M241.3 134.8L262.772 122.429V120.562L241.3 132.932V134.8Z" fill="#E8E8EA"/>
<path d="M262.772 117.297V115.429L241.3 127.8V129.667L262.772 117.297Z" fill="#E8E8EA"/>
<path d="M266.507 76.4512C266.273 77.1514 265.807 77.6182 264.873 78.085L238.732 92.5559C236.865 93.7229 233.831 93.7229 232.197 92.7893L213.525 82.0529C212.824 81.5861 212.358 81.1193 212.358 80.6525V80.419C212.358 79.7188 213.058 79.0186 213.991 78.3184L240.132 63.8475C242 62.6805 245.034 62.6805 246.668 63.6141L265.34 74.3506C266.273 74.8174 266.74 75.5176 266.507 76.4512Z" fill="#F4F4F4"/>
<path d="M264.873 103.06L238.732 117.531C237.798 118.231 236.631 118.465 235.464 118.465V93.4907C236.631 93.4907 237.798 93.0239 238.732 92.5571L264.873 78.0862C265.806 77.6194 266.273 76.9192 266.507 76.4524V100.493C266.74 101.426 266.273 102.36 264.873 103.06Z" fill="white"/>
<path d="M241.3 107.959V110.06L262.772 97.6895V95.5889L241.3 107.959Z" fill="#E8E8EA"/>
<path d="M241.3 104.928L262.772 92.5576V90.6904L241.3 102.827V104.928Z" fill="#E8E8EA"/>
<path d="M262.772 87.4209V85.5537L241.3 97.6906V99.7912L262.772 87.4209Z" fill="#E8E8EA"/>
<path d="M266.507 46.3423C266.273 47.0425 265.807 47.5093 264.873 47.9761L238.732 62.447C236.865 63.614 233.831 63.614 232.197 62.6804L213.525 51.944C212.824 51.4772 212.358 51.0104 212.358 50.5436V50.3102C212.358 49.61 213.058 48.9098 213.991 48.2095L240.132 33.7387C242 32.5716 245.034 32.5716 246.668 33.5053L265.34 44.2417C266.273 44.9419 266.74 45.6421 266.507 46.3423Z" fill="white"/>
<path d="M264.873 73.1818L238.732 87.886C237.798 88.3529 236.631 88.8197 235.464 88.8197V63.6123C236.631 63.6123 237.798 63.3789 238.732 62.6787L264.873 48.2078C265.806 47.741 266.273 47.0408 266.507 46.574V70.6143C266.74 71.3145 266.273 72.2481 264.873 73.1818Z" fill="white"/>
<path d="M241.3 78.085V80.1856L262.772 67.8153V65.7147L241.3 78.085Z" fill="#E8E8EA"/>
<path d="M241.3 75.0489L262.772 62.6786V60.578L241.3 72.9483V75.0489Z" fill="#E8E8EA"/>
<path d="M262.772 57.5458V55.4452L241.3 67.8155V69.9161L262.772 57.5458Z" fill="#E8E8EA"/>
<path d="M235.464 63.6142V88.5881C234.297 88.5881 232.897 88.3547 232.197 87.8879L230.563 86.9543L214.225 77.6183L213.525 77.1515C212.824 76.6847 212.358 76.2179 212.358 75.7511V75.5177V50.7771C212.358 51.2439 212.824 51.9441 213.525 52.1775L232.197 62.914C233.13 63.3808 234.297 63.6142 235.464 63.6142Z" fill="#E8E8EA"/>
<path d="M235.464 93.4895V118.464C234.297 118.464 232.897 118.23 232.197 117.763L230.563 116.83L214.225 107.494L213.525 107.027C212.824 106.56 212.358 106.093 212.358 105.626C212.358 105.626 212.358 105.393 212.358 105.16V80.6525C212.358 81.1193 212.824 81.8195 213.525 82.0529L232.197 92.7893C233.13 93.4895 234.297 93.723 235.464 93.4895Z" fill="#E8E8EA"/>
<path d="M235.464 123.598V148.572C234.297 148.572 232.897 148.572 232.197 147.872L230.563 146.938L214.225 137.602L213.525 137.136C212.824 136.669 212.358 136.202 212.358 135.735C212.358 135.502 212.358 135.502 212.358 135.268V110.528C212.358 110.995 212.824 111.695 213.525 111.928L232.197 122.665C233.13 123.365 234.297 123.598 235.464 123.598Z" fill="#E8E8EA"/>
<path d="M219.207 123.234C219.874 122.843 219.835 121.535 219.12 120.31C218.404 119.086 217.283 118.41 216.615 118.801C215.947 119.191 215.986 120.5 216.702 121.724C217.417 122.948 218.539 123.624 219.207 123.234Z" fill="#50E6FF"/>
<path d="M219.249 93.3467C219.917 92.9564 219.878 91.6476 219.162 90.4235C218.447 89.1994 217.325 88.5235 216.657 88.9138C215.99 89.3042 216.029 90.6129 216.744 91.8371C217.46 93.0612 218.581 93.7371 219.249 93.3467Z" fill="#50E6FF"/>
<path d="M219.292 63.4599C219.959 63.0695 219.921 61.7608 219.205 60.5366C218.489 59.3125 217.368 58.6366 216.7 59.027C216.032 59.4173 216.071 60.7261 216.787 61.9502C217.503 63.1743 218.624 63.8502 219.292 63.4599Z" fill="#50E6FF"/>
<path d="M224.494 129.198C224.261 129.898 223.794 130.365 222.86 130.832L196.719 145.303C194.852 146.47 191.818 146.47 190.184 145.536L171.512 134.8C170.812 134.333 170.345 133.866 170.345 133.399V133.166C170.345 132.466 171.045 131.765 171.979 131.065L198.12 116.594C199.987 115.427 203.021 115.427 204.655 116.361L223.327 127.097C224.261 127.798 224.728 128.498 224.494 129.198Z" fill="#F4F4F4"/>
<path d="M222.86 156.037L196.719 170.508C195.785 170.975 194.618 171.442 193.451 171.442V146.468C194.618 146.468 195.785 146.001 196.719 145.534L222.86 131.063C223.794 130.597 224.26 129.896 224.494 129.43V153.47C224.727 154.17 224.26 155.337 222.86 156.037Z" fill="white"/>
<path d="M199.287 160.941V163.041L220.76 150.671V148.57L199.287 160.941Z" fill="#E8E8EA"/>
<path d="M199.287 157.904L220.76 145.534V143.434L199.287 155.804V157.904Z" fill="#E8E8EA"/>
<path d="M220.76 140.401V138.301L199.287 150.671V152.772L220.76 140.401Z" fill="#E8E8EA"/>
<path d="M224.494 99.3227C224.261 100.023 223.794 100.49 222.86 100.956L196.719 115.427C194.852 116.594 191.818 116.594 190.184 115.661L171.512 104.924C170.812 104.458 170.345 103.991 170.345 103.524V103.291C170.345 102.59 171.045 101.89 171.979 101.19L198.12 86.719C199.987 85.552 203.021 85.552 204.655 86.4856L223.327 97.2221C224.261 97.6889 224.728 98.6225 224.494 99.3227Z" fill="#F4F4F4"/>
<path d="M222.86 125.929L196.719 140.4C195.785 141.1 194.618 141.333 193.451 141.567V116.593C194.618 116.593 195.785 116.126 196.719 115.659L222.86 101.188C223.794 100.721 224.26 100.021 224.494 99.5543V123.595C224.727 124.295 224.26 125.228 222.86 125.929Z" fill="white"/>
<path d="M199.287 131.065V132.932L220.76 120.562V118.695L199.287 131.065Z" fill="#E8E8EA"/>
<path d="M199.287 127.799L220.76 115.429V113.562L199.287 125.932V127.799Z" fill="#E8E8EA"/>
<path d="M220.76 110.292V108.425L199.287 120.795V122.663L220.76 110.292Z" fill="#50E6FF"/>
<path d="M224.494 69.4473C224.261 70.1475 223.794 70.6143 222.86 71.0811L196.719 85.552C194.852 86.719 191.818 86.719 190.184 85.7854L171.512 75.049C170.812 74.5822 170.345 74.1153 170.345 73.6485V73.4151C170.345 72.7149 171.045 72.0147 171.979 71.3145L198.12 56.6102C199.987 55.4432 203.021 55.4432 204.655 56.3768L223.327 67.1133C224.261 67.8135 224.728 68.5137 224.494 69.4473Z" fill="white"/>
<path d="M222.86 96.0533L196.719 110.524C195.785 111.224 194.618 111.458 193.451 111.458V86.4839C194.618 86.4839 195.785 86.2505 196.719 85.5503L222.86 71.0794C223.794 70.6126 224.26 69.9124 224.494 69.4456V93.4859C224.727 94.4195 224.26 95.3531 222.86 96.0533Z" fill="white"/>
<path d="M199.287 100.957V103.057L220.76 90.6869V88.5863L199.287 100.957Z" fill="#E8E8EA"/>
<path d="M199.287 97.9204L220.76 85.5501V83.4495L199.287 95.8197V97.9204Z" fill="#E8E8EA"/>
<path d="M220.76 80.4173V78.3167L199.287 90.6869V92.7875L220.76 80.4173Z" fill="#E8E8EA"/>
<path d="M193.452 86.4856V111.46C192.285 111.46 190.884 111.226 190.184 110.759L188.55 109.826L172.212 100.49L171.512 100.023C170.812 99.5561 170.345 99.0893 170.345 98.6225V98.3891V73.6486C170.345 74.1154 170.812 74.8156 171.512 75.049L190.184 85.7854C191.118 86.4856 192.285 86.719 193.452 86.4856Z" fill="#E8E8EA"/>
<path d="M193.452 116.594V141.568C192.285 141.568 190.884 141.335 190.184 140.868L188.55 139.935L172.212 130.598L171.512 130.132C170.812 129.665 170.345 129.198 170.345 128.731C170.345 128.731 170.345 128.498 170.345 128.264V103.524C170.345 103.991 170.812 104.691 171.512 104.924L190.184 115.661C191.118 116.361 192.285 116.594 193.452 116.594Z" fill="#E8E8EA"/>
<path d="M193.452 146.47V171.444C192.285 171.444 190.884 171.444 190.184 170.743L188.55 169.81L172.212 160.474L171.512 160.007C170.812 159.54 170.345 159.073 170.345 158.607C170.345 158.373 170.345 158.373 170.345 158.14V133.633C170.345 134.099 170.812 134.8 171.512 135.033L190.184 145.769C191.118 146.236 192.285 146.47 193.452 146.47Z" fill="#E8E8EA"/>
<path d="M177.272 146.316C177.94 145.926 177.901 144.617 177.186 143.393C176.47 142.169 175.349 141.493 174.681 141.883C174.013 142.274 174.052 143.582 174.768 144.807C175.483 146.031 176.605 146.707 177.272 146.316Z" fill="#50E6FF"/>
<path d="M177.197 116.229C177.865 115.839 177.826 114.53 177.111 113.306C176.395 112.082 175.274 111.406 174.606 111.796C173.938 112.187 173.977 113.496 174.693 114.72C175.408 115.944 176.53 116.62 177.197 116.229Z" fill="#50E6FF"/>
<path d="M177.24 86.3435C177.908 85.9532 177.869 84.6444 177.153 83.4203C176.438 82.1962 175.316 81.5203 174.649 81.9106C173.981 82.301 174.02 83.6098 174.735 84.8339C175.451 86.058 176.573 86.7339 177.24 86.3435Z" fill="#50E6FF"/>
<path d="M196.427 230.537L124.66 189.133L80.2651 214.436C79.575 214.896 79.345 215.356 79.345 215.816C79.345 216.276 79.575 216.506 80.035 216.736L148.122 256.07C149.042 256.76 150.883 256.53 152.033 255.84L196.427 230.537Z" fill="#F4F4F4"/>
<path d="M148.122 256.301L80.035 216.737C79.575 216.507 79.345 216.277 79.345 215.817V217.887C79.345 218.347 79.575 218.807 80.035 219.037L148.122 258.372C149.042 259.062 150.883 258.832 152.033 258.142L192.287 234.909C194.127 233.759 195.277 233.069 195.967 230.999L196.197 230.539L152.033 256.071C151.113 256.762 149.272 256.762 148.122 256.301Z" fill="#CDCDD0"/>
<path d="M196.428 230.539C197.808 229.389 198.958 228.008 199.418 225.478L209.769 177.863C210.229 176.023 209.309 174.183 207.699 173.263L141.222 134.619C140.762 134.388 140.072 134.158 139.612 134.388L137.311 135.079C137.771 134.849 138.691 134.849 138.921 135.309L196.428 230.539Z" fill="#CDCDD0"/>
<path d="M124.43 188.906L196.198 230.31L207.469 178.325C207.929 176.484 207.009 174.644 205.399 173.724L139.152 135.31C138.691 135.08 138.001 134.85 137.541 135.08C137.541 135.08 137.311 135.08 137.311 135.31C136.621 135.54 136.161 136.23 136.161 136.92L124.43 188.906Z" fill="#F4F4F4"/>
<path d="M120.75 199.027L124.43 201.097C124.66 201.327 125.12 201.327 125.35 201.097L129.03 199.027L129.26 198.797V198.336H120.75V199.027C120.75 198.797 120.75 198.797 120.75 199.027ZM120.75 217.889L146.282 232.61C146.512 232.84 146.972 232.84 147.202 232.61L150.883 230.54L151.113 230.31V229.85L120.75 217.199V217.889C120.75 217.659 120.75 217.889 120.75 217.889ZM109.938 205.237L124.66 213.748C124.89 213.978 125.35 213.978 125.58 213.748L129.26 211.678L129.49 211.448V210.988L109.938 204.777V205.237C109.708 205.007 109.708 205.237 109.938 205.237ZM115.229 214.668L118.909 216.738C119.139 216.968 119.599 216.968 119.829 216.738L123.51 214.668L123.74 214.438V213.978H114.999L115.229 214.668ZM109.938 211.448L113.619 213.518C113.849 213.748 114.309 213.748 114.539 213.518L118.219 211.448L118.449 211.218V210.758H109.708L109.938 211.448C109.708 211.448 109.708 211.448 109.938 211.448ZM104.418 208.458L108.098 210.528C108.328 210.758 108.788 210.758 109.018 210.528L112.699 208.458L112.929 208.228V207.767H104.188L104.418 208.458C104.188 208.228 104.188 208.458 104.418 208.458ZM142.602 224.099L146.282 226.169C146.512 226.399 146.972 226.399 147.202 226.169L150.883 224.099L151.113 223.869V223.409H142.372L142.602 224.099ZM159.164 233.76L168.365 239.051C168.595 239.281 169.055 239.281 169.285 239.051L172.965 236.981L173.195 236.751V236.291L159.164 233.07V233.76C158.934 233.53 158.934 233.53 159.164 233.76ZM153.643 236.751L157.323 238.821C157.553 239.051 158.013 239.051 158.244 238.821L161.924 236.751L162.154 236.521V236.061H153.413L153.643 236.751C153.413 236.751 153.413 236.751 153.643 236.751ZM148.122 233.76L151.803 235.83C152.033 236.061 152.493 236.061 152.723 235.83L156.403 233.76L156.633 233.53V233.07H147.892L148.122 233.76C147.892 233.53 148.122 233.53 148.122 233.76ZM148.122 227.32L151.803 229.39C152.033 229.62 152.493 229.62 152.723 229.39L156.403 227.32L156.633 227.09V226.63H147.892L148.122 227.32C147.892 227.32 148.122 227.32 148.122 227.32ZM153.643 230.54L157.323 232.61C157.553 232.84 158.013 232.84 158.244 232.61L161.924 230.54L162.154 230.31V229.85H153.413L153.643 230.54C153.413 230.31 153.413 230.54 153.643 230.54ZM126.27 214.668L129.95 216.738C130.181 216.968 130.641 216.968 130.871 216.738L134.551 214.668L134.781 214.438V213.978H126.04L126.27 214.668C126.04 214.668 126.04 214.668 126.27 214.668ZM131.791 217.889L135.471 219.959C135.701 220.189 136.161 220.189 136.391 219.959L140.072 217.889L140.302 217.659V217.199H131.561L131.791 217.889C131.561 217.659 131.561 217.889 131.791 217.889ZM137.081 221.109L140.762 223.179C140.992 223.409 141.452 223.409 141.682 223.179L145.362 221.109L145.592 220.879V220.419H136.851L137.081 221.109C137.081 220.879 137.081 220.879 137.081 221.109ZM159.164 239.971L162.844 242.041C163.074 242.271 163.534 242.271 163.764 242.041L167.445 239.971L167.675 239.741V239.281H158.934L159.164 239.971C158.934 239.741 158.934 239.971 159.164 239.971ZM164.454 230.54L168.135 232.61C168.365 232.84 168.825 232.84 169.055 232.61L172.735 230.54L172.965 230.31V229.85H164.454V230.54C164.454 230.31 164.454 230.54 164.454 230.54ZM169.975 233.76L173.655 235.83C173.885 236.061 174.345 236.061 174.575 235.83L178.256 233.76L178.486 233.53V233.07H169.745L169.975 233.76C169.745 233.53 169.975 233.53 169.975 233.76ZM115.229 202.017L124.43 207.307C124.66 207.537 125.12 207.537 125.35 207.307L129.03 205.237L129.26 205.007V204.547L115.229 201.327V202.017ZM126.27 208.458L129.95 210.528C130.181 210.758 130.641 210.758 130.871 210.528L134.551 208.458L134.781 208.228V207.767H126.04L126.27 208.458C126.04 208.228 126.04 208.458 126.27 208.458ZM148.122 221.109L151.803 223.179C152.033 223.409 152.493 223.409 152.723 223.179L156.403 221.109L156.633 220.879V220.419H147.892L148.122 221.109C147.892 220.879 148.122 220.879 148.122 221.109ZM153.643 224.099L157.323 226.169C157.553 226.399 158.013 226.399 158.244 226.169L161.924 224.099L162.154 223.869V223.409H153.413L153.643 224.099C153.413 224.099 153.413 224.099 153.643 224.099ZM159.164 227.32L162.844 229.39C163.074 229.62 163.534 229.62 163.764 229.39L167.445 227.32L167.675 227.09V226.63H158.934L159.164 227.32C158.934 227.32 158.934 227.32 159.164 227.32ZM131.791 211.448L135.471 213.518C135.701 213.748 136.161 213.748 136.391 213.518L140.072 211.448L140.302 211.218V210.758H131.561L131.791 211.448C131.561 211.448 131.561 211.448 131.791 211.448ZM137.081 214.668L140.762 216.738C140.992 216.968 141.452 216.968 141.682 216.738L145.362 214.668L145.592 214.438V213.978H136.851L137.081 214.668ZM142.602 217.889L146.282 219.959C146.512 220.189 146.972 220.189 147.202 219.959L150.883 217.889L151.113 217.659V217.199H142.372L142.602 217.889C142.602 217.659 142.602 217.889 142.602 217.889ZM153.643 217.889L157.323 219.959C157.553 220.189 158.013 220.189 158.244 219.959L161.924 217.889L162.154 217.659V217.199H153.413L153.643 217.889C153.413 217.659 153.413 217.889 153.643 217.889ZM181.016 227.32L184.696 229.39C184.926 229.62 185.386 229.62 185.616 229.39L186.997 228.47L187.227 228.24V227.78L180.786 226.399L181.016 227.32C180.786 227.32 180.786 227.32 181.016 227.32ZM126.27 195.806L129.95 197.876C130.181 198.106 130.641 198.106 130.871 197.876L132.251 196.956L132.481 196.726V196.266L126.04 194.886L126.27 195.806C126.04 195.576 126.04 195.806 126.27 195.806ZM131.791 199.027L135.471 201.097C135.701 201.327 136.161 201.327 136.391 201.097L137.771 200.177L138.001 199.947V199.487L131.561 198.106L131.791 199.027C131.561 198.797 131.561 198.797 131.791 199.027ZM137.081 202.017L140.762 204.087C140.992 204.317 141.452 204.317 141.682 204.087L143.062 203.167L143.292 202.937V202.477L136.851 201.097L137.081 202.017ZM142.602 205.237L146.282 207.307C146.512 207.537 146.972 207.537 147.202 207.307L148.582 206.387L148.813 206.157V205.697L142.372 204.317L142.602 205.237C142.602 205.007 142.602 205.237 142.602 205.237ZM148.122 208.458L151.803 210.528C152.033 210.758 152.493 210.758 152.723 210.528L154.103 209.608L154.333 209.378V208.918L147.892 207.537L148.122 208.458C147.892 208.228 148.122 208.458 148.122 208.458ZM153.643 211.448L157.323 213.518C157.553 213.748 158.013 213.748 158.244 213.518L159.624 212.598L159.854 212.368V211.908L153.413 210.528L153.643 211.448C153.413 211.448 153.413 211.448 153.643 211.448ZM159.164 214.668L162.844 216.738C163.074 216.968 163.534 216.968 163.764 216.738L165.144 215.818L165.374 215.588V215.128L158.934 213.978L159.164 214.668C158.934 214.668 158.934 214.668 159.164 214.668ZM164.454 217.889L168.135 219.959C168.365 220.189 168.825 220.189 169.055 219.959L170.435 219.039L170.665 218.809V218.579L164.454 217.199V217.889C164.454 217.659 164.454 217.889 164.454 217.889ZM169.975 221.109L173.655 223.179C173.885 223.409 174.345 223.409 174.575 223.179L175.955 222.259L176.185 222.029V221.569L169.745 220.189L169.975 221.109C169.745 220.879 169.975 220.879 169.975 221.109ZM175.495 224.099L179.176 226.169C179.406 226.399 179.866 226.399 180.096 226.169L181.476 225.249L181.706 225.019V224.559L175.265 223.179L175.495 224.099C175.265 224.099 175.265 224.099 175.495 224.099ZM175.495 230.54L179.176 232.61C179.406 232.84 179.866 232.84 180.096 232.61L183.776 230.54L184.006 230.31V229.85H175.265L175.495 230.54C175.265 230.31 175.265 230.54 175.495 230.54ZM159.164 221.109L162.844 223.179C163.074 223.409 163.534 223.409 163.764 223.179L167.445 221.109L167.675 220.879V220.419H158.934L159.164 221.109C158.934 220.879 158.934 220.879 159.164 221.109ZM164.454 224.099L168.135 226.169C168.365 226.399 168.825 226.399 169.055 226.169L172.735 224.099L172.965 223.869V223.409H164.454V224.099ZM137.081 208.458L140.762 210.528C140.992 210.758 141.452 210.758 141.682 210.528L145.362 208.458L145.592 208.228V207.767H136.851L137.081 208.458C137.081 208.228 137.081 208.458 137.081 208.458ZM142.602 211.448L146.282 213.518C146.512 213.748 146.972 213.748 147.202 213.518L150.883 211.448L151.113 211.218V210.758H142.372L142.602 211.448ZM148.122 214.668L151.803 216.738C152.033 216.968 152.493 216.968 152.723 216.738L156.403 214.668L156.633 214.438V213.978H147.892L148.122 214.668C147.892 214.668 148.122 214.668 148.122 214.668ZM169.975 227.32L173.655 229.39C173.885 229.62 174.345 229.62 174.575 229.39L178.256 227.32L178.486 227.09V226.63H169.745L169.975 227.32C169.745 227.32 169.975 227.32 169.975 227.32ZM131.791 205.237L135.471 207.307C135.701 207.537 136.161 207.537 136.391 207.307L140.072 205.237L140.302 205.007V204.547H131.561L131.791 205.237C131.561 205.007 131.561 205.237 131.791 205.237ZM126.27 202.017L129.95 204.087C130.181 204.317 130.641 204.317 130.871 204.087L134.551 202.017L134.781 201.787V201.327H126.04L126.27 202.017C126.04 202.017 126.04 202.017 126.27 202.017Z" fill="#CDCDD0"/>
<path d="M175.496 223.638L179.176 225.708C179.406 225.938 179.866 225.938 180.096 225.708L181.477 224.788L181.707 224.558C181.707 224.558 181.707 224.328 181.477 224.328L177.796 222.258C177.566 222.028 177.106 222.028 176.876 222.258L175.496 223.178C175.266 223.178 175.266 223.408 175.496 223.638C175.266 223.638 175.266 223.638 175.496 223.638ZM159.164 214.207L162.845 216.277C163.075 216.507 163.535 216.507 163.765 216.277L165.145 215.357L165.375 215.127C165.375 215.127 165.375 214.897 165.145 214.897L161.464 212.827C161.234 212.597 160.774 212.597 160.544 212.827L159.164 213.747C158.934 213.747 158.934 213.977 159.164 214.207C158.934 213.977 158.934 214.207 159.164 214.207ZM181.017 226.858L184.697 228.929C184.927 229.159 185.387 229.159 185.617 228.929L186.997 228.009L187.227 227.778C187.227 227.778 187.227 227.548 186.997 227.548L183.317 225.478C183.087 225.248 182.627 225.248 182.397 225.478L181.017 226.398C180.787 226.398 180.787 226.628 181.017 226.858C180.787 226.628 180.787 226.858 181.017 226.858ZM159.164 239.51L162.845 241.58C163.075 241.81 163.535 241.81 163.765 241.58L167.445 239.51L167.675 239.28C167.675 239.28 167.675 239.05 167.445 239.05L163.765 236.979C163.535 236.749 163.075 236.749 162.845 236.979L159.164 239.05C158.934 239.05 158.934 239.05 159.164 239.51C158.934 239.28 158.934 239.51 159.164 239.51ZM175.496 230.079L179.176 232.149C179.406 232.379 179.866 232.379 180.096 232.149L183.777 230.079L184.007 229.849C184.007 229.849 184.007 229.619 183.777 229.619L180.096 227.548C179.866 227.318 179.406 227.318 179.176 227.548L175.496 229.619C175.266 229.619 175.266 229.619 175.496 230.079C175.266 229.849 175.266 229.849 175.496 230.079ZM120.75 198.335L124.431 200.406C124.661 200.636 125.121 200.636 125.351 200.406L129.031 198.335L129.261 198.105C129.261 198.105 129.261 197.875 129.031 197.875L125.351 195.805C125.121 195.575 124.661 195.575 124.431 195.805L120.75 197.875C120.75 198.105 120.75 198.105 120.75 198.335ZM126.271 201.556L129.951 203.626C130.181 203.856 130.641 203.856 130.871 203.626L134.552 201.556L134.782 201.326C134.782 201.326 134.782 201.096 134.552 201.096L130.871 199.025C130.641 198.795 130.181 198.795 129.951 199.025L126.271 201.096C126.041 201.096 126.041 201.326 126.271 201.556C126.041 201.556 126.041 201.556 126.271 201.556ZM131.791 204.776L135.472 206.846C135.702 207.076 136.162 207.076 136.392 206.846L140.072 204.776L140.302 204.546C140.302 204.546 140.302 204.316 140.072 204.316L136.392 202.246C136.162 202.016 135.702 202.016 135.472 202.246L131.791 204.316C131.561 204.316 131.561 204.316 131.791 204.776C131.561 204.546 131.561 204.776 131.791 204.776ZM137.082 207.996L140.762 210.067C140.992 210.297 141.452 210.297 141.682 210.067L145.363 207.996L145.593 207.766C145.593 207.766 145.593 207.536 145.363 207.536L141.682 205.466C141.452 205.236 140.992 205.236 140.762 205.466L137.082 207.536C137.082 207.536 137.082 207.536 137.082 207.996C137.082 207.766 137.082 207.766 137.082 207.996ZM142.602 210.987L146.283 213.057C146.513 213.287 146.973 213.287 147.203 213.057L150.883 210.987L151.113 210.757C151.113 210.757 151.113 210.527 150.883 210.527L147.203 208.456C146.973 208.226 146.513 208.226 146.283 208.456L142.602 210.527C142.602 210.757 142.602 210.757 142.602 210.987ZM148.123 214.207L151.803 216.277C152.033 216.507 152.494 216.507 152.724 216.277L156.404 214.207L156.634 213.977C156.634 213.977 156.634 213.747 156.404 213.747L152.724 211.677C152.494 211.447 152.033 211.447 151.803 211.677L148.123 213.747C148.123 213.747 147.893 213.977 148.123 214.207C147.893 213.977 148.123 214.207 148.123 214.207ZM153.644 217.427L157.324 219.498C157.554 219.728 158.014 219.728 158.244 219.498L161.925 217.427L162.155 217.197C162.155 217.197 162.155 216.967 161.925 216.967L158.244 214.897C158.014 214.667 157.554 214.667 157.324 214.897L153.644 216.967C153.414 216.967 153.414 216.967 153.644 217.427C153.414 217.197 153.414 217.427 153.644 217.427ZM159.164 220.418L162.845 222.488C163.075 222.718 163.535 222.718 163.765 222.488L167.445 220.418L167.675 220.188C167.675 220.188 167.675 219.958 167.445 219.958L163.765 217.887C163.535 217.657 163.075 217.657 162.845 217.887L159.164 219.958C158.934 220.188 158.934 220.188 159.164 220.418C158.934 220.418 158.934 220.418 159.164 220.418ZM164.455 223.638L168.135 225.708C168.365 225.938 168.825 225.938 169.055 225.708L172.736 223.638L172.966 223.408C172.966 223.408 172.966 223.178 172.736 223.178L169.055 221.108C168.825 220.878 168.365 220.878 168.135 221.108L164.455 223.178C164.455 223.178 164.455 223.408 164.455 223.638ZM169.975 226.858L173.656 228.929C173.886 229.159 174.346 229.159 174.576 228.929L178.256 226.858L178.486 226.628C178.486 226.628 178.486 226.398 178.256 226.398L174.576 224.328C174.346 224.098 173.886 224.098 173.656 224.328L169.975 226.398C169.975 226.398 169.745 226.628 169.975 226.858C169.745 226.628 169.975 226.858 169.975 226.858ZM169.975 233.069L173.656 235.139C173.886 235.369 174.346 235.369 174.576 235.139L178.256 233.069L178.486 232.839C178.486 232.839 178.486 232.609 178.256 232.609L174.576 230.539C174.346 230.309 173.886 230.309 173.656 230.539L169.975 232.609C169.975 232.839 169.745 232.839 169.975 233.069C169.745 233.069 169.975 233.069 169.975 233.069ZM115.23 201.556L124.431 206.846C124.661 207.076 125.121 207.076 125.351 206.846L129.031 204.776L129.261 204.546C129.261 204.546 129.261 204.316 129.031 204.316L119.83 199.025C119.6 198.795 119.14 198.795 118.91 199.025L115.23 201.096C115.23 201.096 115.23 201.326 115.23 201.556ZM126.271 207.996L129.951 210.067C130.181 210.297 130.641 210.297 130.871 210.067L134.552 207.996L134.782 207.766C134.782 207.766 134.782 207.536 134.552 207.536L130.871 205.466C130.641 205.236 130.181 205.236 129.951 205.466L126.271 207.536C126.041 207.536 126.041 207.536 126.271 207.996C126.041 207.766 126.041 207.766 126.271 207.996ZM131.791 210.987L135.472 213.057C135.702 213.287 136.162 213.287 136.392 213.057L140.072 210.987L140.302 210.757C140.302 210.757 140.302 210.527 140.072 210.527L136.392 208.456C136.162 208.226 135.702 208.226 135.472 208.456L131.791 210.527C131.561 210.757 131.561 210.757 131.791 210.987C131.561 210.987 131.561 210.987 131.791 210.987ZM137.082 214.207L140.762 216.277C140.992 216.507 141.452 216.507 141.682 216.277L145.363 214.207L145.593 213.977C145.593 213.977 145.593 213.747 145.363 213.747L141.912 211.677C141.682 211.447 141.222 211.447 140.992 211.677L137.312 213.747C137.082 213.747 137.082 213.977 137.082 214.207C137.082 213.977 137.082 214.207 137.082 214.207ZM142.602 217.427L146.283 219.498C146.513 219.728 146.973 219.728 147.203 219.498L150.883 217.427L151.113 217.197C151.113 217.197 151.113 216.967 150.883 216.967L147.203 214.897C146.973 214.667 146.513 214.667 146.283 214.897L142.602 216.967C142.602 216.967 142.602 216.967 142.602 217.427C142.602 217.197 142.602 217.427 142.602 217.427ZM148.123 220.418L151.803 222.488C152.033 222.718 152.494 222.718 152.724 222.488L156.404 220.418L156.634 220.188C156.634 220.188 156.634 219.958 156.404 219.958L152.724 217.887C152.494 217.657 152.033 217.657 151.803 217.887L148.123 219.958C148.123 220.188 147.893 220.188 148.123 220.418C147.893 220.418 148.123 220.418 148.123 220.418ZM153.644 223.638L157.324 225.708C157.554 225.938 158.014 225.938 158.244 225.708L161.925 223.638L162.155 223.408C162.155 223.408 162.155 223.178 161.925 223.178L158.244 221.108C158.014 220.878 157.554 220.878 157.324 221.108L153.644 223.178C153.414 223.178 153.414 223.408 153.644 223.638C153.414 223.638 153.414 223.638 153.644 223.638ZM159.164 226.858L162.845 228.929C163.075 229.159 163.535 229.159 163.765 228.929L167.445 226.858L167.675 226.628C167.675 226.628 167.675 226.398 167.445 226.398L163.765 224.328C163.535 224.098 163.075 224.098 162.845 224.328L159.164 226.398C158.934 226.398 158.934 226.628 159.164 226.858C158.934 226.628 158.934 226.858 159.164 226.858ZM164.455 230.079L168.135 232.149C168.365 232.379 168.825 232.379 169.055 232.149L172.736 230.079L172.966 229.849C172.966 229.849 172.966 229.619 172.736 229.619L169.055 227.318C168.825 227.088 168.365 227.088 168.135 227.318L164.455 229.619C164.455 229.619 164.455 229.619 164.455 230.079C164.455 229.849 164.455 229.849 164.455 230.079ZM159.164 233.069L168.365 238.36C168.595 238.59 169.055 238.59 169.285 238.36L172.966 236.289L173.196 236.059C173.196 236.059 173.196 235.829 172.966 235.829L163.765 230.539C163.535 230.309 163.075 230.309 162.845 230.539L159.164 232.609C158.934 232.839 158.934 232.839 159.164 233.069C158.934 233.069 158.934 233.069 159.164 233.069ZM109.939 204.776L124.661 213.287C124.891 213.517 125.351 213.517 125.581 213.287L129.261 211.217L129.491 210.987C129.491 210.987 129.491 210.757 129.261 210.757L114.539 202.246C114.309 202.016 113.849 202.016 113.619 202.246L109.939 204.316C109.709 204.316 109.709 204.316 109.939 204.776C109.709 204.546 109.709 204.776 109.939 204.776ZM126.271 214.207L129.951 216.277C130.181 216.507 130.641 216.507 130.871 216.277L134.552 214.207L134.782 213.977C134.782 213.977 134.782 213.747 134.552 213.747L130.871 211.677C130.641 211.447 130.181 211.447 129.951 211.677L126.271 213.747C126.041 213.747 126.041 213.977 126.271 214.207C126.041 213.977 126.041 214.207 126.271 214.207ZM131.791 217.427L135.472 219.498C135.702 219.728 136.162 219.728 136.392 219.498L140.072 217.427L140.302 217.197C140.302 217.197 140.302 216.967 140.072 216.967L136.392 214.897C136.162 214.667 135.702 214.667 135.472 214.897L131.791 216.967C131.561 216.967 131.561 216.967 131.791 217.427C131.561 217.197 131.561 217.427 131.791 217.427ZM137.082 220.418L140.762 222.488C140.992 222.718 141.452 222.718 141.682 222.488L145.363 220.418L145.593 220.188C145.593 220.188 145.593 219.958 145.363 219.958L141.682 217.887C141.452 217.657 140.992 217.657 140.762 217.887L137.082 219.958C137.082 220.188 137.082 220.188 137.082 220.418ZM142.602 223.638L146.283 225.708C146.513 225.938 146.973 225.938 147.203 225.708L150.883 223.638L151.113 223.408C151.113 223.408 151.113 223.178 150.883 223.178L147.203 221.108C146.973 220.878 146.513 220.878 146.283 221.108L142.602 223.178C142.602 223.178 142.602 223.408 142.602 223.638ZM148.123 226.858L151.803 228.929C152.033 229.159 152.494 229.159 152.724 228.929L156.404 226.858L156.634 226.628C156.634 226.628 156.634 226.398 156.404 226.398L152.724 224.328C152.494 224.098 152.033 224.098 151.803 224.328L148.123 226.398C148.123 226.398 147.893 226.628 148.123 226.858C147.893 226.628 148.123 226.858 148.123 226.858ZM153.644 230.079L157.324 232.149C157.554 232.379 158.014 232.379 158.244 232.149L161.925 230.079L162.155 229.849C162.155 229.849 162.155 229.619 161.925 229.619L158.244 227.548C158.014 227.318 157.554 227.318 157.324 227.548L153.644 229.619C153.414 229.619 153.414 229.619 153.644 230.079C153.414 229.849 153.414 229.849 153.644 230.079ZM104.418 207.996L108.099 210.067C108.329 210.297 108.789 210.297 109.019 210.067L112.699 207.996L112.929 207.766C112.929 207.766 112.929 207.536 112.699 207.536L109.019 205.466C108.789 205.236 108.329 205.236 108.099 205.466L104.418 207.536C104.188 207.536 104.188 207.536 104.418 207.996C104.188 207.766 104.188 207.766 104.418 207.996ZM109.939 210.987L113.619 213.057C113.849 213.287 114.309 213.287 114.539 213.057L118.22 210.987L118.45 210.757C118.45 210.757 118.45 210.527 118.22 210.527L114.539 208.456C114.309 208.226 113.849 208.226 113.619 208.456L109.939 210.527C109.709 210.757 109.709 210.757 109.939 210.987C109.709 210.987 109.709 210.987 109.939 210.987ZM115.23 214.207L118.91 216.277C119.14 216.507 119.6 216.507 119.83 216.277L123.51 214.207L123.74 213.977C123.74 213.977 123.74 213.747 123.51 213.747L119.83 211.677C119.6 211.447 119.14 211.447 118.91 211.677L115.23 213.747C115.23 213.747 115.23 213.977 115.23 214.207C115.23 213.977 115.23 214.207 115.23 214.207ZM146.513 232.149C146.743 232.379 147.203 232.379 147.433 232.149L151.113 230.079L151.343 229.849C151.343 229.849 151.343 229.619 151.113 229.619C142.602 224.788 134.092 219.728 125.581 214.897C125.351 214.667 124.891 214.667 124.661 214.897L120.75 216.967L120.52 217.197C120.52 217.197 120.52 217.427 120.75 217.427C129.261 222.258 137.772 227.318 146.513 232.149ZM148.123 233.069L151.803 235.139C152.033 235.369 152.494 235.369 152.724 235.139L156.404 233.069L156.634 232.839C156.634 232.839 156.634 232.609 156.404 232.609L152.724 230.539C152.494 230.309 152.033 230.309 151.803 230.539L148.123 232.609C148.123 232.839 147.893 232.839 148.123 233.069C147.893 233.069 148.123 233.069 148.123 233.069ZM153.644 236.289L157.324 238.36C157.554 238.59 158.014 238.59 158.244 238.36L161.925 236.289L162.155 236.059C162.155 236.059 162.155 235.829 161.925 235.829L158.244 233.759C158.014 233.529 157.554 233.529 157.324 233.759L153.644 235.829C153.414 235.829 153.414 236.059 153.644 236.289C153.414 236.289 153.414 236.289 153.644 236.289ZM126.271 195.345L129.951 197.415C130.181 197.645 130.641 197.645 130.871 197.415L132.251 196.495L132.481 196.265C132.481 196.265 132.481 196.035 132.251 196.035L128.571 193.965C128.341 193.735 127.881 193.735 127.651 193.965L126.271 194.885C126.041 194.885 126.041 194.885 126.271 195.345C126.041 195.115 126.041 195.115 126.271 195.345ZM131.791 198.335L135.472 200.406C135.702 200.636 136.162 200.636 136.392 200.406L137.772 199.485L138.002 199.255C138.002 199.255 138.002 199.025 137.772 199.025L134.092 196.955C133.862 196.725 133.401 196.725 133.171 196.955L131.791 197.875C131.561 198.105 131.561 198.105 131.791 198.335C131.561 198.335 131.561 198.335 131.791 198.335ZM137.082 201.556L140.762 203.626C140.992 203.856 141.452 203.856 141.682 203.626L143.062 202.706L143.293 202.476C143.293 202.476 143.293 202.246 143.062 202.246L139.612 200.176C139.152 200.176 138.922 200.176 138.692 200.176L137.312 201.096C137.082 201.096 137.082 201.326 137.082 201.556ZM142.602 204.776L146.283 206.846C146.513 207.076 146.973 207.076 147.203 206.846L148.583 205.926L148.813 205.696C148.813 205.696 148.813 205.466 148.583 205.466L144.903 203.396C144.673 203.166 144.213 203.166 143.983 203.396L142.602 204.316C142.602 204.316 142.602 204.316 142.602 204.776C142.602 204.546 142.602 204.776 142.602 204.776ZM148.123 207.996L151.803 210.067C152.033 210.297 152.494 210.297 152.724 210.067L154.104 209.146L154.334 208.916C154.334 208.916 154.334 208.686 154.104 208.686L150.423 206.616C150.193 206.386 149.733 206.386 149.503 206.616L148.123 207.536C148.123 207.536 147.893 207.536 148.123 207.996C147.893 207.766 148.123 207.766 148.123 207.996ZM153.644 210.987L157.324 213.057C157.554 213.287 158.014 213.287 158.244 213.057L159.624 212.137L159.854 211.907C159.854 211.907 159.854 211.677 159.624 211.677L155.944 209.607C155.714 209.377 155.254 209.377 155.024 209.607L153.644 210.527C153.414 210.757 153.414 210.757 153.644 210.987C153.414 210.987 153.414 210.987 153.644 210.987ZM164.455 217.427L168.135 219.498C168.365 219.728 168.825 219.728 169.055 219.498L170.435 218.577L170.665 218.347C170.665 218.347 170.665 218.117 170.435 218.117L166.755 216.047C166.525 215.817 166.065 215.817 165.835 216.047L164.455 216.967C164.455 216.967 164.455 216.967 164.455 217.427C164.455 217.197 164.455 217.427 164.455 217.427ZM169.975 220.418L173.656 222.488C173.886 222.718 174.346 222.718 174.576 222.488L175.956 221.568L176.186 221.338C176.186 221.338 176.186 221.108 175.956 221.108L172.276 219.038C172.046 218.808 171.586 218.808 171.356 219.038L169.975 219.958C169.975 220.188 169.745 220.188 169.975 220.418C169.745 220.418 169.975 220.418 169.975 220.418Z" fill="#F4F4F4"/>
<path d="M203.558 176.944C192.747 170.734 182.396 164.753 171.585 158.542C160.774 152.332 149.963 146.121 139.152 139.91C137.541 147.731 135.701 155.782 134.091 163.603C132.481 171.424 131.331 176.944 129.491 184.765C129.261 185.685 129.031 186.375 129.031 187.295C139.842 193.506 150.653 199.717 161.464 205.927C172.275 212.138 183.086 218.349 193.897 224.559C195.508 216.739 197.348 208.688 198.958 200.867C200.568 193.046 202.408 184.995 204.019 177.174C203.789 177.174 203.789 177.174 203.558 176.944Z" fill="#0078D4"/>
<path d="M104.648 228.469C104.418 228.239 104.418 228.239 104.648 228.469L104.418 227.779L145.132 234.449V234.679C145.132 234.679 145.132 234.909 144.902 234.909L130.871 243.19C130.641 243.42 130.18 243.42 129.95 243.19L104.648 228.469Z" fill="#CDCDD0"/>
<path d="M104.647 227.777C104.417 227.777 104.417 227.547 104.647 227.777C104.417 227.547 104.647 227.317 104.647 227.317L118.679 219.267C118.909 219.036 119.369 219.036 119.599 219.267C128.11 224.097 136.621 229.158 145.132 233.988L145.362 234.218C145.362 234.218 145.362 234.448 145.132 234.448L131.1 242.499C130.87 242.729 130.41 242.729 130.18 242.499C121.669 237.668 113.158 232.608 104.647 227.777Z" fill="#F4F4F4"/>
<path d="M181.476 188.446L181.936 191.206L183.317 189.366L184.007 190.516L182.166 191.666L184.237 192.586L184.007 193.736L181.936 192.126L182.856 194.886H181.936L181.476 191.896L180.096 193.736L179.406 193.276L181.246 192.126L178.946 191.206L179.176 190.056L181.246 191.666L180.326 188.676L181.476 188.446Z" fill="#50E6FF"/>
<path d="M173.195 183.614L173.655 186.374L175.035 184.534L175.725 185.684L173.885 186.834L175.955 187.754V189.134L173.885 187.524L174.805 190.284H173.885L173.425 187.294L172.045 189.134L171.355 188.214L173.195 187.064L170.895 186.144L171.125 184.994L173.195 186.604L172.275 183.614H173.195Z" fill="#50E6FF"/>
<path d="M165.145 178.785L165.605 181.545L166.985 179.705L167.675 180.855L165.835 182.005L167.905 182.925L167.675 184.076L165.605 182.465L166.525 185.226H165.605L165.145 182.235L163.764 184.076L163.074 182.925L164.915 181.775L162.614 180.855L162.844 179.705L164.915 181.315L163.994 178.325L165.145 178.785Z" fill="#50E6FF"/>
<path d="M156.864 173.723L157.324 176.483L158.704 174.643L159.394 175.793L157.784 177.173L159.854 178.093L159.624 179.243L157.554 177.863L158.474 180.624H157.554L157.094 177.633L155.714 179.474L155.024 178.323L156.864 177.173L154.564 176.253L154.794 175.103L156.864 176.713L155.944 173.723H156.864Z" fill="#50E6FF"/>
<path d="M148.813 168.894L149.273 171.654L150.653 169.814L151.343 170.964L149.503 172.114L151.573 173.034L151.343 174.184L149.273 172.574L150.193 175.335H149.273L148.813 172.344L147.433 174.184L146.743 173.034L148.583 171.884L146.282 170.964L146.512 169.814L148.583 171.424L147.663 168.434L148.813 168.894Z" fill="#50E6FF"/>
<g filter="url(#filter5_d)">
<path d="M185.137 282.121V339.857C185.137 345.378 180.536 351.819 175.016 354.119C172.485 355.269 170.185 355.269 168.345 354.349C168.345 354.349 248.164 400.584 250.004 401.504C251.844 402.654 254.374 402.654 257.134 401.504C262.655 399.204 267.256 392.763 267.256 387.242V329.736" fill="white"/>
</g>
<path d="M284.277 244.167C284.277 244.167 220.33 207.133 205.609 198.622V210.353L287.958 257.968V251.068C287.728 247.387 286.348 245.087 284.277 244.167Z" fill="#CDCDD0"/>
<path d="M267.485 329.736V262.799C267.485 256.358 272.086 248.538 277.607 245.087C280.137 243.707 282.437 243.477 284.277 244.167C284.277 244.167 204.459 197.932 202.619 197.012C200.778 195.862 198.248 196.092 195.488 197.702C189.967 200.922 185.367 208.743 185.367 215.414V282.351" fill="white"/>
<path d="M209.749 270.85L203.309 261.879L197.328 263.719L197.098 234.966L209.749 242.097V270.85Z" fill="#50E6FF"/>
<path d="M214.58 249.918L212.05 251.068L213.2 255.438L209.749 254.288L209.059 257.969L205.839 254.518L203.539 256.358L201.239 251.988L197.788 251.528L197.098 247.157L193.648 244.397L194.798 241.177L192.268 237.036L194.798 235.886L193.648 231.286L197.098 232.666L197.788 228.985L201.239 232.206L203.539 230.366L205.839 234.966L209.059 235.426L209.749 239.797L213.2 242.557L212.05 245.777L214.58 249.918Z" fill="#0078D4"/>
<path d="M254.834 313.864L197.558 280.741V276.37L254.834 309.494V313.864Z" fill="#0078D4"/>
<path d="M254.834 324.907L197.558 291.784V287.413L254.834 320.537V324.907Z" fill="#0078D4"/>
<path d="M254.834 335.947L197.558 303.053V298.683L254.834 331.576V335.947Z" fill="#0078D4"/>
<path d="M254.834 347.22L197.558 314.096V309.726L254.834 342.849V347.22Z" fill="#0078D4"/>
<path d="M228.841 343.308L197.558 325.366V320.995L228.841 338.937V343.308Z" fill="#0078D4"/>
<path d="M681.973 316.02C680.363 321.54 675.762 326.831 667.942 331.201L602.845 369.615C585.363 379.737 558.68 380.887 543.498 372.146L452.639 318.55C446.428 314.87 442.978 310.269 442.517 305.209C442.287 304.289 442.287 303.138 442.517 302.218C443.208 296.008 448.038 289.567 457.009 284.276L522.106 245.862C539.588 235.741 566.271 234.591 581.452 243.332L672.312 296.928C680.823 301.988 684.043 308.889 681.973 316.02Z" fill="white"/>
<path d="M681.973 318.322V316.022C680.363 321.542 675.762 326.833 667.942 331.203L602.845 369.617C585.363 379.739 558.68 380.889 543.498 372.148L452.639 318.552C446.428 314.872 442.978 310.271 442.517 305.211V312.571C442.287 313.721 442.287 314.642 442.517 315.562C443.208 320.622 446.428 325.223 452.639 328.903L543.498 382.499C558.68 391.24 585.363 390.09 602.845 379.969L667.942 341.554C679.443 334.884 684.273 326.143 681.973 318.322Z" fill="#E8E8EA"/>
<path d="M599.624 231.141L499.333 288.877V219.87L599.624 162.133V231.141Z" fill="#243A5E"/>
<path d="M496.344 287.265L499.564 288.875V219.868L496.344 218.258V287.265Z" fill="#0078D4"/>
<path d="M596.404 160.293L599.624 161.903L499.334 219.869L496.113 218.259C496.343 218.259 596.404 160.293 596.404 160.293Z" fill="#0078D4"/>
<path d="M546.029 249.313L538.438 253.913V243.332L546.029 238.961V249.313Z" fill="#0078D4"/>
<path d="M558.68 242.181L551.089 246.551V228.379L558.68 223.779V242.181Z" fill="#0078D4"/>
<path d="M571.331 234.821L563.74 239.192V208.598L571.331 204.228V234.821Z" fill="#0078D4"/>
<path d="M583.983 227.458L576.392 231.829V213.657L583.983 209.286V227.458Z" fill="#50E6FF"/>
<path d="M518.656 245.862C513.135 249.083 508.765 246.552 508.765 240.342C508.765 234.131 513.135 226.54 518.656 223.32C524.176 220.099 528.547 222.63 528.547 228.84C528.547 235.051 524.176 242.642 518.656 245.862ZM518.656 225.85C514.515 228.15 511.065 234.131 511.065 238.961C511.065 243.792 514.515 245.632 518.656 243.332C522.796 241.032 526.246 235.051 526.246 230.221C526.246 225.39 522.796 223.32 518.656 225.85Z" fill="#0078D4"/>
<path d="M518.656 245.862C513.135 249.083 508.765 246.552 508.765 240.342L511.065 238.961C511.065 243.792 514.515 245.632 518.656 243.332C522.796 241.032 526.246 235.051 526.246 230.221C526.246 225.39 522.796 223.55 518.656 225.85V223.32C524.176 220.099 528.547 222.63 528.547 228.84C528.547 235.051 524.176 242.642 518.656 245.862Z" fill="#50E6FF"/>
<path d="M526.477 250.461V252.531L512.675 260.582V258.512L526.477 250.461Z" fill="#50E6FF"/>
<path d="M526.477 255.063V257.133L512.675 265.184V263.114L526.477 255.063Z" fill="#50E6FF"/>
<path d="M526.477 259.66V261.731L512.675 269.781V267.711L526.477 259.66Z" fill="#50E6FF"/>
<g opacity="0.3" filter="url(#filter6_f)">
<path d="M672.312 296.929L595.253 339.024L549.709 336.033L545.798 304.06L586.512 281.518L642.178 280.367L672.312 296.929Z" fill="#353544"/>
</g>
<path d="M612.276 285.426C612.046 286.117 611.356 286.807 610.436 287.267L558.68 317.4C557.99 317.86 557.07 318.09 556.38 318.32C555.92 318.32 555.46 318.55 555 318.55H554.77C554.54 318.55 554.54 318.55 554.31 318.55C553.62 318.55 552.93 318.55 552.47 318.32C552.47 318.32 552.47 318.32 552.24 318.32C552.24 318.32 552.24 318.32 552.01 318.32C551.55 318.09 551.32 318.09 550.86 317.86L528.087 292.327C527.167 291.867 526.707 291.177 526.707 290.487V290.027C526.707 289.107 527.397 288.417 528.547 287.727L580.303 257.593C582.603 256.213 586.743 255.983 588.584 257.823L607.446 278.756L611.816 283.356C612.276 284.276 612.276 285.196 612.276 285.426Z" fill="white"/>
<g filter="url(#filter7_d)">
<path d="M612.276 302.908V285.656C612.046 286.347 611.355 287.037 610.435 287.497L558.68 317.63C557.99 318.09 556.38 318.55 556.15 318.55C555.69 318.55 555.229 318.78 554.769 318.78H554.539C554.309 318.78 554.309 318.78 554.079 318.78C553.389 318.78 551.319 318.32 549.939 316.94C549.939 316.94 526.706 291.407 526.706 290.717V303.598V303.368V320.16C526.476 321.31 526.936 322.46 528.547 323.381L549.939 335.802C550.629 336.262 551.319 336.492 552.009 336.722C552.009 336.722 552.009 336.722 552.239 336.722C552.239 336.722 552.239 336.722 552.469 336.722C553.159 336.952 553.619 336.952 554.309 336.952C554.539 336.952 554.539 336.952 554.769 336.952H554.999C555.459 336.952 555.92 336.952 556.38 336.722C556.84 336.492 557.3 336.492 557.76 336.262L559.83 335.342L567.651 330.741L604.225 309.579L610.205 306.129L611.125 305.669C612.046 305.209 612.506 304.519 612.506 303.828C612.276 303.138 612.276 302.908 612.276 302.908Z" fill="#E8E8EA"/>
</g>
</g>
<g clip-path="url(#clip0)">
<path d="M328.045 232.393C295.945 217.093 256.345 186.193 256.345 121.993L278.045 134.493C278.045 184.593 302.145 214.393 328.045 232.393Z" fill="#243A5E"/>
<path d="M482.345 26.8915C471.445 127.892 379.045 236.392 370.645 246.392C370.345 246.692 369.945 247.092 369.945 247.092L357.645 243.892C350.245 241.592 339.645 237.992 328.045 232.492C302.145 214.492 278.045 184.692 278.045 134.592C325.745 107.692 346.045 46.3915 391.745 20.5915C428.145 -0.00849152 453.445 26.7915 482.345 26.8915Z" fill="#0070E9"/>
<path d="M483.345 8.39319C443.745 30.5932 415.645 -17.6068 370.045 8.09319C331.045 30.0932 310.545 78.0932 275.645 108.293C269.745 113.493 263.345 118.093 256.345 121.993L278.045 134.493C325.745 107.593 346.045 46.2932 391.745 20.4932C428.245 -0.106806 453.545 26.6932 482.445 26.7932C489.645 26.7932 497.145 25.1932 505.045 20.7932L483.345 8.39319Z" fill="#50E6FF"/>
<path d="M504.945 20.7932V26.0932C501.445 130.593 401.045 248.493 392.345 258.893C392.045 259.193 391.745 259.493 391.745 259.493L379.345 256.293C367.445 252.593 347.245 245.693 328.045 232.393C302.145 214.393 278.045 184.593 278.045 134.493C325.745 107.593 346.045 46.2932 391.745 20.4932C428.245 -0.106757 453.545 26.6932 482.445 26.7932C489.545 26.8932 497.045 25.2932 504.945 20.7932Z" fill="#0078D4"/>
</g>
<path d="M391.299 39.2262L295.981 134.817C295.981 208.075 357.529 229.59 380.95 236.943L391.299 239.666C391.299 239.666 391.571 239.394 391.843 239.122C399.196 230.407 483.349 131.549 486.344 43.8559C486.344 42.4942 486.344 41.1326 486.344 39.4985C486.344 39.2262 486.344 39.2262 486.344 38.9539L391.299 39.2262Z" fill="#0078D4"/>
<path d="M403.009 203.447C392.388 198.545 380.678 191.737 369.784 182.749C358.346 173.218 349.631 162.052 343.64 149.797C341.189 144.895 340.372 143.261 339.01 138.086L402.192 77.8996L467.553 71.3635C465.102 82.8017 460.745 93.4228 455.843 105.95C447.945 126.92 436.779 149.524 422.618 172.673C417.443 181.388 410.907 191.737 403.009 203.447Z" fill="#50E6FF"/>
<path d="M394.619 239.243C434.884 166.507 414.752 82.4067 400.464 46.3636" stroke="#0078D4" stroke-width="6.49424" stroke-miterlimit="10"/>
<path d="M282.594 135.333C299.154 137.606 374.163 142.802 421.246 122.994C472.875 101.563 494.631 39.8678 502.424 24.2816" stroke="#0078D4" stroke-width="6.49424" stroke-miterlimit="10"/>
<defs>
<filter id="filter0_f" x="160.34" y="283.288" width="238.535" height="162.018" filterUnits="userSpaceOnUse" color-interpolation-filters="sRGB">
<feFlood flood-opacity="0" result="BackgroundImageFix"/>
<feBlend mode="normal" in="SourceGraphic" in2="BackgroundImageFix" result="shape"/>
<feGaussianBlur stdDeviation="23.0025" result="effect1_foregroundBlur"/>
</filter>
<filter id="filter1_f" x="297.995" y="137.451" width="263.148" height="165.848" filterUnits="userSpaceOnUse" color-interpolation-filters="sRGB">
<feFlood flood-opacity="0" result="BackgroundImageFix"/>
<feBlend mode="normal" in="SourceGraphic" in2="BackgroundImageFix" result="shape"/>
<feGaussianBlur stdDeviation="23.0025" result="effect1_foregroundBlur"/>
</filter>
<filter id="filter2_f" x="93.3401" y="138.288" width="219.904" height="161.247" filterUnits="userSpaceOnUse" color-interpolation-filters="sRGB">
<feFlood flood-opacity="0" result="BackgroundImageFix"/>
<feBlend mode="normal" in="SourceGraphic" in2="BackgroundImageFix" result="shape"/>
<feGaussianBlur stdDeviation="23.0025" result="effect1_foregroundBlur"/>
</filter>
<filter id="filter3_f" x="108.34" y="33.2884" width="282.01" height="196.533" filterUnits="userSpaceOnUse" color-interpolation-filters="sRGB">
<feFlood flood-opacity="0" result="BackgroundImageFix"/>
<feBlend mode="normal" in="SourceGraphic" in2="BackgroundImageFix" result="shape"/>
<feGaussianBlur stdDeviation="23.0025" result="effect1_foregroundBlur"/>
</filter>
<filter id="filter4_f" x="489.34" y="86.2883" width="262.664" height="185.115" filterUnits="userSpaceOnUse" color-interpolation-filters="sRGB">
<feFlood flood-opacity="0" result="BackgroundImageFix"/>
<feBlend mode="normal" in="SourceGraphic" in2="BackgroundImageFix" result="shape"/>
<feGaussianBlur stdDeviation="23.0025" result="effect1_foregroundBlur"/>
</filter>
<filter id="filter5_d" x="153.345" y="266.121" width="138.911" height="160.245" filterUnits="userSpaceOnUse" color-interpolation-filters="sRGB">
<feFlood flood-opacity="0" result="BackgroundImageFix"/>
<feColorMatrix in="SourceAlpha" type="matrix" values="0 0 0 0 0 0 0 0 0 0 0 0 0 0 0 0 0 0 127 0"/>
<feOffset dx="5" dy="4"/>
<feGaussianBlur stdDeviation="10"/>
<feColorMatrix type="matrix" values="0 0 0 0 0.921397 0 0 0 0 0.921397 0 0 0 0 0.921397 0 0 0 1 0"/>
<feBlend mode="normal" in2="BackgroundImageFix" result="effect1_dropShadow"/>
<feBlend mode="normal" in="SourceGraphic" in2="effect1_dropShadow" result="shape"/>
</filter>
<filter id="filter6_f" x="499.793" y="234.363" width="218.523" height="150.666" filterUnits="userSpaceOnUse" color-interpolation-filters="sRGB">
<feFlood flood-opacity="0" result="BackgroundImageFix"/>
<feBlend mode="normal" in="SourceGraphic" in2="BackgroundImageFix" result="shape"/>
<feGaussianBlur stdDeviation="23.0025" result="effect1_foregroundBlur"/>
</filter>
<filter id="filter7_d" x="522.651" y="285.656" width="93.8547" height="59.2955" filterUnits="userSpaceOnUse" color-interpolation-filters="sRGB">
<feFlood flood-opacity="0" result="BackgroundImageFix"/>
<feColorMatrix in="SourceAlpha" type="matrix" values="0 0 0 0 0 0 0 0 0 0 0 0 0 0 0 0 0 0 127 0"/>
<feOffset dy="4"/>
<feGaussianBlur stdDeviation="2"/>
<feColorMatrix type="matrix" values="0 0 0 0 0 0 0 0 0 0 0 0 0 0 0 0 0 0 0.05 0"/>
<feBlend mode="normal" in2="BackgroundImageFix" result="effect1_dropShadow"/>
<feBlend mode="normal" in="SourceGraphic" in2="effect1_dropShadow" result="shape"/>
</filter>
<clipPath id="clip0">
<rect width="248.6" height="259.3" fill="white" transform="translate(256.345 0.293213)"/>
</clipPath>
</defs>
</svg>
